# xmcd
#
# Track frame offsets:
#	150
#	18769
#	32668
#	49208
#	64429
#	79077
#	96080
#	113501
#	131046
#	150773
#
# Disc length: 2307 seconds
#
# Revision: 3
# Processed by: cddbd v1.5.2PL0 Copyright (c) Steve Scherf et al.
# Submitted via: audiograbber 1.83.01
#
DISCID=7209010a
DTITLE=Reba McEntire - Love Revival
DYEAR=2008
DGENRE=Country
TTITLE0=Love Revival
TTITLE1=You Must Really Love Me
TTITLE2=Bad For My Own Good
TTITLE3=The Heart Won't Lie
TTITLE4=Love Needs A Holiday
TTITLE5=With You I Am
TTITLE6=Somebody
TTITLE7=Forever Love
TTITLE8=Big Blue Sky
TTITLE9=I'll Still Be Loving You
EXTD=Cleaned up titles
EXTT0=
EXTT1=
EXTT2=
EXTT3=
EXTT4=
EXTT5=
EXTT6=
EXTT7=
EXTT8=
EXTT9=
PLAYORDER=
